<svg width="257" height="18" viewBox="0 0 257 18" fill="none" xmlns="http://www.w3.org/2000/svg">
<path d="M7.07805e-08 0.499999H19.85V18H14.6V10.55H5.35V18H7.07805e-08V0.499999ZM14.475 3.075H5.425V7.95H14.475V3.075ZM27.6947 15.425H42.0447L39.7947 18H22.3447V0.499999H42.0197L39.7947 3.075H27.6947V15.425ZM65.4861 0.499999L63.2611 3.075H56.7861V18H51.5611V3.075H45.0111L42.7861 0.499999H65.4861ZM67.2412 18V0.499999H72.4912V18H67.2412ZM74.2432 0.499999H79.3682L85.1432 12.175L90.8932 0.499999H96.0182L86.7682 18H83.4932L74.2432 0.499999ZM102.521 15.425H114.621L116.871 18H97.2705V0.499999H116.921L114.696 3.075H102.521V7.975H115.746V10.55H102.521V15.425ZM134.588 9.675H123.763V18H118.663V0.499999H137.563L135.363 3.075H123.763V7.1H136.838L134.588 9.675ZM139.823 18V0.499999H145.073V18H139.823ZM169.525 0.499999L167.3 3.075H160.825V18H155.6V3.075H149.05L146.825 0.499999H169.525ZM190.33 0.499999V18L176.005 8.475V18H170.78V0.499999L185.18 9.95V0.499999H190.33ZM197.838 15.425H209.938L212.188 18H192.588V0.499999H212.238L210.013 3.075H197.838V7.975H211.063V10.55H197.838V15.425ZM233.93 7.95V15.35L231.655 18H215.88L213.63 15.425H227.705L228.63 14.35V10.525H214.305V3.275L216.68 0.499999H234.53L232.33 3.075H220.655L219.53 4.35V7.95H233.93ZM256.373 7.95V15.35L254.098 18H238.323L236.073 15.425H250.148L251.073 14.35V10.525H236.748V3.275L239.123 0.499999H256.973L254.773 3.075H243.098L241.973 4.35V7.95H256.373Z" fill="white"/>
</svg>
